<mxfile host="app.diagrams.net" modified="2024-04-24T19:58:51.537Z" agent="Mozilla/5.0 (Windows NT 10.0; Win64; x64) AppleWebKit/537.36 (KHTML, like Gecko) Chrome/124.0.0.0 Safari/537.36" version="24.0.0" etag="_suMbT2EyhyvKySvFt8H" type="github">
  <diagram name="PÃ¡gina-1" id="BbTzEE1cRQ3DgRpffZA7">
    <mxGraphModel>
      <root>
        <mxCell id="0" />
        <mxCell id="1" parent="0" />
      </root>
    </mxGraphModel>
  </diagram>
</mxfile>
